<svg data-v-423bf9ae="" xmlns="http://www.w3.org/2000/svg" viewBox="0 0 492 90" class="iconLeftSlogan"><!----><defs data-v-423bf9ae=""><linearGradient data-v-423bf9ae="" gradientTransform="rotate(25)" id="ddc107d0-c556-42b0-9a7a-3764d2ae8d66" x1="0%" y1="0%" x2="100%" y2="0%"><stop data-v-423bf9ae="" offset="0%" style="stop-color: rgb(105, 63, 36); stop-opacity: 1;"></stop><stop data-v-423bf9ae="" offset="100%" style="stop-color: rgb(156, 146, 137); stop-opacity: 1;"></stop></linearGradient></defs><!----><g data-v-423bf9ae="" id="072ce230-f9d4-412f-95e4-4147b5f74e51" fill="#ffffff" transform="matrix(4.770880854161612,0,0,4.770880854161612,138.19049810015207,-33.84799682357537)"><path d="M9.62 8.97L9.62 8.97L9.62 8.97Q9.73 8.61 9.65 8.41L9.65 8.41L9.65 8.41Q9.58 8.22 9.21 7.95L9.21 7.95L9.21 7.95Q8.82 7.70 8.39 7.50L8.39 7.50L8.39 7.50Q7.95 7.29 7.55 7.18L7.55 7.18L7.55 7.18Q7.11 7.06 6.88 7.12L6.88 7.12L6.88 7.12Q6.65 7.18 6.52 7.63L6.52 7.63L6.52 7.63Q6.20 8.82 5.87 10.28L5.87 10.28L5.87 10.28Q5.54 11.75 5.19 13.23L5.19 13.23L5.19 13.23Q4.66 13.27 4.09 13.31L4.09 13.31L4.09 13.31Q3.53 13.36 2.94 13.43L2.94 13.43L2.94 13.43Q3.22 12.19 3.46 11.12L3.46 11.12L3.46 11.12Q3.71 10.04 3.93 9.24L3.93 9.24L3.93 9.24Q3.98 9.06 3.99 8.92L3.99 8.92L3.99 8.92Q4.00 8.78 3.96 8.67L3.96 8.67L3.96 8.67Q3.91 8.55 3.79 8.44L3.79 8.44L3.79 8.44Q3.67 8.33 3.46 8.20L3.46 8.20L3.46 8.20Q3.08 7.95 2.57 7.73L2.57 7.73L2.57 7.73Q2.06 7.52 1.61 7.39L1.61 7.39L1.61 7.39Q1.20 7.24 0.99 7.32L0.99 7.32L0.99 7.32Q0.78 7.41 0.67 7.85L0.67 7.85L0.67 7.85Q0.50 9.03 0.34 10.42L0.34 10.42L0.34 10.42Q0.18 11.82 0.01 13.22L0.01 13.22L0.01 13.22Q-0.15 14.62-0.34 15.90L-0.34 15.90L-0.34 15.90Q-0.52 17.19-0.73 18.16L-0.73 18.16L-0.73 18.16Q-0.81 18.52-0.67 18.73L-0.67 18.73L-0.67 18.73Q-0.53 18.93-0.21 19.08L-0.21 19.08L-0.21 19.08Q0.06 19.24 0.43 19.33L0.43 19.33L0.43 19.33Q0.80 19.43 1.15 19.53L1.15 19.53L1.15 19.53Q1.51 19.61 1.63 19.54L1.63 19.54L1.63 19.54Q1.75 19.47 1.81 19.24L1.81 19.24L1.81 19.24Q1.92 18.56 2.06 17.72L2.06 17.72L2.06 17.72Q2.20 16.87 2.42 15.90L2.42 15.90L2.42 15.90Q3.01 15.81 3.58 15.73L3.58 15.73L3.58 15.73Q4.14 15.65 4.73 15.57L4.73 15.57L4.73 15.57Q4.58 16.38 4.47 17.04L4.47 17.04L4.47 17.04Q4.35 17.70 4.30 18.20L4.30 18.20L4.30 18.20Q4.17 18.70 4.49 18.95L4.49 18.95L4.49 18.95Q4.82 19.19 5.39 19.36L5.39 19.36L5.39 19.36Q5.67 19.43 5.92 19.50L5.92 19.50L5.92 19.50Q6.16 19.56 6.34 19.57L6.34 19.57L6.34 19.57Q6.52 19.57 6.63 19.51L6.63 19.51L6.63 19.51Q6.73 19.45 6.73 19.25L6.73 19.25L6.73 19.25Q7.01 18.09 7.37 16.73L7.37 16.73L7.37 16.73Q7.73 15.37 8.11 14L8.11 14L8.11 14Q8.50 12.63 8.89 11.33L8.89 11.33L8.89 11.33Q9.28 10.02 9.62 8.97ZM9.42 17.89L9.42 17.89L9.42 17.89Q9.65 18.28 9.95 18.55L9.95 18.55L9.95 18.55Q10.26 18.82 10.61 19.01L10.61 19.01L10.61 19.01Q11.42 19.46 12.68 19.54L12.68 19.54L12.68 19.54Q13.31 19.59 13.80 19.50L13.80 19.50L13.80 19.50Q14.29 19.40 14.78 19.17L14.78 19.17L14.78 19.17Q15.47 18.77 16.03 17.91L16.03 17.91L16.03 17.91Q16.59 17.04 17.07 15.75L17.07 15.75L17.07 15.75Q17.54 14.46 17.97 12.79L17.97 12.79L17.97 12.79Q18.40 11.12 18.82 9.11L18.82 9.11L18.82 9.11Q18.86 8.93 18.87 8.80L18.87 8.80L18.87 8.80Q18.89 8.67 18.84 8.55L18.84 8.55L18.84 8.55Q18.80 8.44 18.70 8.34L18.70 8.34L18.70 8.34Q18.59 8.23 18.40 8.11L18.40 8.11L18.40 8.11Q18.02 7.88 17.56 7.65L17.56 7.65L17.56 7.65Q17.11 7.42 16.71 7.31L16.71 7.31L16.71 7.31Q16.31 7.21 16.03 7.29L16.03 7.29L16.03 7.29Q15.75 7.38 15.72 7.80L15.72 7.80L15.72 7.80Q15.55 8.67 15.34 9.77L15.34 9.77L15.34 9.77Q15.13 10.88 14.88 12.02L14.88 12.02L14.88 12.02Q14.62 13.16 14.32 14.24L14.32 14.24L14.32 14.24Q14.01 15.32 13.69 16.14L13.69 16.14L13.69 16.14Q13.36 16.95 12.99 17.42L12.99 17.42L12.99 17.42Q12.63 17.88 12.25 17.78L12.25 17.78L12.25 17.78Q11.94 17.70 11.84 17.26L11.84 17.26L11.84 17.26Q11.73 16.83 11.77 16.17L11.77 16.17L11.77 16.17Q11.80 15.51 11.95 14.69L11.95 14.69L11.95 14.69Q12.10 13.86 12.31 12.99L12.31 12.99L12.31 12.99Q12.52 12.12 12.76 11.28L12.76 11.28L12.76 11.28Q13.01 10.43 13.23 9.70L13.23 9.70L13.23 9.70Q13.47 8.85 12.71 8.30L12.71 8.30L12.71 8.30Q12.35 8.04 11.96 7.84L11.96 7.84L11.96 7.84Q11.58 7.64 11.16 7.52L11.16 7.52L11.16 7.52Q10.71 7.36 10.49 7.45L10.49 7.45L10.49 7.45Q10.28 7.53 10.16 7.94L10.16 7.94L10.16 7.94Q9.91 8.83 9.68 9.78L9.68 9.78L9.68 9.78Q9.45 10.72 9.27 11.66L9.27 11.66L9.27 11.66Q9.09 12.60 8.97 13.51L8.97 13.51L8.97 13.51Q8.86 14.42 8.86 15.23L8.86 15.23L8.86 15.23Q8.86 16.04 9.00 16.72L9.00 16.72L9.00 16.72Q9.13 17.40 9.42 17.89ZM26.53 8.26L26.53 8.26L26.53 8.26Q26.05 7.88 25.33 7.62L25.33 7.62L25.33 7.62Q24.61 7.35 23.81 7.22L23.81 7.22L23.81 7.22Q23.20 7.13 22.52 7.32L22.52 7.32L22.52 7.32Q21.84 7.52 21.35 7.90L21.35 7.90L21.35 7.90Q20.62 8.53 20.07 9.32L20.07 9.32L20.07 9.32Q19.52 10.11 19.14 10.99L19.14 10.99L19.14 10.99Q18.76 11.87 18.56 12.80L18.56 12.80L18.56 12.80Q18.37 13.73 18.35 14.63L18.35 14.63L18.35 14.63Q18.34 15.53 18.51 16.34L18.51 16.34L18.51 16.34Q18.68 17.15 19.01 17.79L19.01 17.79L19.01 17.79Q19.22 18.19 19.59 18.49L19.59 18.49L19.59 18.49Q19.95 18.80 20.33 19.00L20.33 19.00L20.33 19.00Q20.79 19.24 21.35 19.36L21.35 19.36L21.35 19.36Q21.91 19.47 22.44 19.53L22.44 19.53L22.44 19.53Q23.24 19.61 23.86 19.47L23.86 19.47L23.86 19.47Q24.47 19.32 25.03 18.89L25.03 18.89L25.03 18.89Q25.86 18.16 26.43 17.11L26.43 17.11L26.43 17.11Q26.99 16.06 27.32 14.88L27.32 14.88L27.32 14.88Q27.65 13.69 27.73 12.50L27.73 12.50L27.73 12.50Q27.82 11.30 27.66 10.28L27.66 10.28L27.66 10.28Q27.55 9.66 27.31 9.18L27.31 9.18L27.31 9.18Q27.06 8.69 26.53 8.26ZM24.28 9.66L24.28 9.66L24.28 9.66Q24.56 9.74 24.69 10.24L24.69 10.24L24.69 10.24Q24.82 10.74 24.82 11.44L24.82 11.44L24.82 11.44Q24.82 12.12 24.71 12.91L24.71 12.91L24.71 12.91Q24.60 13.71 24.42 14.36L24.42 14.36L24.42 14.36Q24.21 15.16 23.92 15.84L23.92 15.84L23.92 15.84Q23.63 16.52 23.31 16.98L23.31 16.98L23.31 16.98Q22.99 17.44 22.67 17.67L22.67 17.67L22.67 17.67Q22.34 17.89 22.05 17.79L22.05 17.79L22.05 17.79Q21.73 17.70 21.56 17.26L21.56 17.26L21.56 17.26Q21.39 16.83 21.36 16.22L21.36 16.22L21.36 16.22Q21.34 15.61 21.42 14.90L21.42 14.90L21.42 14.90Q21.50 14.20 21.70 13.54L21.70 13.54L21.70 13.54Q21.90 12.87 22.21 12.14L22.21 12.14L22.21 12.14Q22.53 11.42 22.89 10.84L22.89 10.84L22.89 10.84Q23.25 10.25 23.62 9.90L23.62 9.90L23.62 9.90Q23.98 9.56 24.28 9.66ZM31.21 16.04L31.21 16.04L31.21 16.04Q31.57 16.49 32.02 16.93L32.02 16.93L32.02 16.93Q32.47 17.37 32.91 17.78L32.91 17.78L32.91 17.78Q33.36 18.19 33.78 18.52L33.78 18.52L33.78 18.52Q34.20 18.86 34.52 19.08L34.52 19.08L34.52 19.08Q35.01 19.38 35.39 19.41L35.39 19.41L35.39 19.41Q35.76 19.45 36.06 19.36L36.06 19.36L36.06 19.36Q36.32 19.32 36.49 19.29L36.49 19.29L36.49 19.29Q36.67 19.25 36.92 19.05L36.92 19.05L36.92 19.05Q37.13 18.90 37.16 18.76L37.16 18.76L37.16 18.76Q37.18 18.62 36.90 18.38L36.90 18.38L36.90 18.38Q36.55 18.10 36.16 17.72L36.16 17.72L36.16 17.72Q35.76 17.35 35.35 16.94L35.35 16.94L35.35 16.94Q34.94 16.53 34.56 16.13L34.56 16.13L34.56 16.13Q34.17 15.72 33.85 15.36L33.85 15.36L33.85 15.36Q35.42 14.66 36.55 13.85L36.55 13.85L36.55 13.85Q37.67 13.03 38.16 12.07L38.16 12.07L38.16 12.07Q38.49 11.47 38.30 10.53L38.30 10.53L38.30 10.53Q38.08 9.65 37.68 9.04L37.68 9.04L37.68 9.04Q37.28 8.43 36.79 7.90L36.79 7.90L36.79 7.90Q36.18 7.29 35.36 7.16L35.36 7.16L35.36 7.16Q34.54 7.03 33.62 7.19L33.62 7.19L33.62 7.19Q32.70 7.35 31.76 7.73L31.76 7.73L31.76 7.73Q30.81 8.11 29.95 8.50L29.95 8.50L29.95 8.50Q29.76 8.60 29.60 8.99L29.60 8.99L29.60 8.99Q29.43 9.39 29.29 10.00L29.29 10.00L29.29 10.00Q29.15 10.61 29.02 11.38L29.02 11.38L29.02 11.38Q28.90 12.14 28.79 12.95L28.79 12.95L28.79 12.95Q28.69 13.76 28.60 14.57L28.60 14.57L28.60 14.57Q28.50 15.39 28.43 16.09L28.43 16.09L28.43 16.09Q28.36 16.80 28.32 17.36L28.32 17.36L28.32 17.36Q28.27 17.92 28.24 18.21L28.24 18.21L28.24 18.21Q28.21 18.58 28.31 18.80L28.31 18.80L28.31 18.80Q28.41 19.01 28.67 19.17L28.67 19.17L28.67 19.17Q28.94 19.31 29.23 19.36L29.23 19.36L29.23 19.36Q29.53 19.42 29.90 19.52L29.90 19.52L29.90 19.52Q30.23 19.59 30.35 19.52L30.35 19.52L30.35 19.52Q30.46 19.45 30.53 19.22L30.53 19.22L30.53 19.22Q30.69 18.47 30.85 17.68L30.85 17.68L30.85 17.68Q31.01 16.90 31.21 16.04ZM32.70 10.36L32.70 10.36L32.70 10.36Q33.25 10.09 33.74 10.00L33.74 10.00L33.74 10.00Q34.23 9.90 34.64 9.90L34.64 9.90L34.64 9.90Q35.46 9.90 35.63 10.29L35.63 10.29L35.63 10.29Q35.71 10.53 35.49 10.96L35.49 10.96L35.49 10.96Q35.27 11.40 34.76 11.88L34.76 11.88L34.76 11.88Q34.26 12.36 33.51 12.83L33.51 12.83L33.51 12.83Q32.76 13.30 31.79 13.62L31.79 13.62L31.79 13.62Q32.06 12.70 32.27 11.89L32.27 11.89L32.27 11.89Q32.48 11.07 32.70 10.36ZM38.78 17.89L38.78 17.89L38.78 17.89Q39.00 18.28 39.31 18.55L39.31 18.55L39.31 18.55Q39.62 18.82 39.97 19.01L39.97 19.01L39.97 19.01Q40.78 19.46 42.04 19.54L42.04 19.54L42.04 19.54Q42.67 19.59 43.16 19.50L43.16 19.50L43.16 19.50Q43.65 19.40 44.14 19.17L44.14 19.17L44.14 19.17Q44.83 18.77 45.39 17.91L45.39 17.91L45.39 17.91Q45.95 17.04 46.42 15.75L46.42 15.75L46.42 15.75Q46.90 14.46 47.33 12.79L47.33 12.79L47.33 12.79Q47.75 11.12 48.17 9.11L48.17 9.11L48.17 9.11Q48.22 8.93 48.23 8.80L48.23 8.80L48.23 8.80Q48.24 8.67 48.20 8.55L48.20 8.55L48.20 8.55Q48.16 8.44 48.06 8.34L48.06 8.34L48.06 8.34Q47.95 8.23 47.75 8.11L47.75 8.11L47.75 8.11Q47.38 7.88 46.92 7.65L46.92 7.65L46.92 7.65Q46.47 7.42 46.07 7.31L46.07 7.31L46.07 7.31Q45.67 7.21 45.39 7.29L45.39 7.29L45.39 7.29Q45.11 7.38 45.08 7.80L45.08 7.80L45.08 7.80Q44.91 8.67 44.70 9.77L44.70 9.77L44.70 9.77Q44.49 10.88 44.23 12.02L44.23 12.02L44.23 12.02Q43.97 13.16 43.67 14.24L43.67 14.24L43.67 14.24Q43.37 15.32 43.04 16.14L43.04 16.14L43.04 16.14Q42.71 16.95 42.35 17.42L42.35 17.42L42.35 17.42Q41.99 17.88 41.61 17.78L41.61 17.78L41.61 17.78Q41.30 17.70 41.20 17.26L41.20 17.26L41.20 17.26Q41.09 16.83 41.13 16.17L41.13 16.17L41.13 16.17Q41.16 15.51 41.31 14.69L41.31 14.69L41.31 14.69Q41.45 13.86 41.66 12.99L41.66 12.99L41.66 12.99Q41.87 12.12 42.12 11.28L42.12 11.28L42.12 11.28Q42.36 10.43 42.59 9.70L42.59 9.70L42.59 9.70Q42.83 8.85 42.07 8.30L42.07 8.30L42.07 8.30Q41.71 8.04 41.32 7.84L41.32 7.84L41.32 7.84Q40.94 7.64 40.52 7.52L40.52 7.52L40.52 7.52Q40.07 7.36 39.85 7.45L39.85 7.45L39.85 7.45Q39.63 7.53 39.52 7.94L39.52 7.94L39.52 7.94Q39.27 8.83 39.04 9.78L39.04 9.78L39.04 9.78Q38.81 10.72 38.63 11.66L38.63 11.66L38.63 11.66Q38.44 12.60 38.33 13.51L38.33 13.51L38.33 13.51Q38.22 14.42 38.22 15.23L38.22 15.23L38.22 15.23Q38.22 16.04 38.35 16.72L38.35 16.72L38.35 16.72Q38.49 17.40 38.78 17.89ZM47.89 18.30L47.89 18.30L47.89 18.30Q47.88 18.62 47.99 18.88L47.99 18.88L47.99 18.88Q48.10 19.14 48.31 19.31L48.31 19.31L48.31 19.31Q48.52 19.49 48.81 19.59L48.81 19.59L48.81 19.59Q49.10 19.68 49.42 19.67L49.42 19.67L49.42 19.67Q49.73 19.67 49.98 19.57L49.98 19.57L49.98 19.57Q50.23 19.46 50.41 19.31L50.41 19.31L50.41 19.31Q50.60 19.17 50.71 19.00L50.71 19.00L50.71 19.00Q50.82 18.83 50.86 18.70L50.86 18.70L50.86 18.70Q50.93 18.49 50.93 18.30L50.93 18.30L50.93 18.30Q50.95 17.98 50.69 17.65L50.69 17.65L50.69 17.65Q50.43 17.32 49.85 17.14L49.85 17.14L49.85 17.14Q49.42 17.02 49.07 17.08L49.07 17.08L49.07 17.08Q48.72 17.14 48.47 17.31L48.47 17.31L48.47 17.31Q48.22 17.49 48.06 17.75L48.06 17.75L48.06 17.75Q47.91 18.00 47.89 18.30ZM55.57 12.47L55.57 12.47L55.57 12.47Q55.78 13.87 56.04 15.19L56.04 15.19L56.04 15.19Q56.29 16.51 56.57 17.51L56.57 17.51L56.57 17.51Q56.64 17.75 56.71 17.91L56.71 17.91L56.71 17.91Q56.77 18.06 56.85 18.16L56.85 18.16L56.85 18.16Q56.94 18.27 57.05 18.33L57.05 18.33L57.05 18.33Q57.16 18.40 57.32 18.45L57.32 18.45L57.32 18.45Q57.74 18.59 58.30 18.70L58.30 18.70L58.30 18.70Q58.48 18.75 58.59 18.74L58.59 18.74L58.59 18.74Q58.70 18.73 58.77 18.69L58.77 18.69L58.77 18.69Q58.84 18.65 58.89 18.56L58.89 18.56L58.89 18.56Q58.94 18.47 59.01 18.31L59.01 18.31L59.01 18.31Q59.23 17.82 59.61 17.09L59.61 17.09L59.61 17.09Q59.98 16.35 60.42 15.53L60.42 15.53L60.42 15.53Q60.86 14.70 61.33 13.85L61.33 13.85L61.33 13.85Q61.80 12.99 62.22 12.26L62.22 12.26L62.22 12.26Q61.98 13.09 61.78 13.97L61.78 13.97L61.78 13.97Q61.57 14.85 61.40 15.66L61.40 15.66L61.40 15.66Q61.24 16.46 61.11 17.13L61.11 17.13L61.11 17.13Q60.98 17.79 60.93 18.21L60.93 18.21L60.93 18.21Q60.86 18.56 60.96 18.77L60.96 18.77L60.96 18.77Q61.07 18.98 61.39 19.14L61.39 19.14L61.39 19.14Q61.64 19.28 61.98 19.38L61.98 19.38L61.98 19.38Q62.31 19.47 62.64 19.54L62.64 19.54L62.64 19.54Q63.00 19.63 63.13 19.52L63.13 19.52L63.13 19.52Q63.25 19.40 63.35 19.15L63.35 19.15L63.35 19.15Q63.46 18.66 63.66 17.92L63.66 17.92L63.66 17.92Q63.85 17.18 64.10 16.30L64.10 16.30L64.10 16.30Q64.34 15.41 64.62 14.45L64.62 14.45L64.62 14.45Q64.89 13.48 65.16 12.54L65.16 12.54L65.16 12.54Q65.44 11.61 65.70 10.75L65.70 10.75L65.70 10.75Q65.97 9.90 66.18 9.24L66.18 9.24L66.18 9.24Q66.33 8.78 66.23 8.52L66.23 8.52L66.23 8.52Q66.12 8.26 65.72 8.06L65.72 8.06L65.72 8.06Q65.10 7.78 64.46 7.57L64.46 7.57L64.46 7.57Q63.83 7.36 63.25 7.21L63.25 7.21L63.25 7.21Q62.76 7.07 62.45 7.10L62.45 7.10L62.45 7.10Q62.13 7.13 61.88 7.34L61.88 7.34L61.88 7.34Q61.63 7.56 61.39 7.97L61.39 7.97L61.39 7.97Q61.15 8.39 60.83 9.03L60.83 9.03L60.83 9.03Q60.51 9.59 60.17 10.22L60.17 10.22L60.17 10.22Q59.82 10.85 59.50 11.48L59.50 11.48L59.50 11.48Q59.18 12.11 58.88 12.71L58.88 12.71L58.88 12.71Q58.58 13.31 58.35 13.82L58.35 13.82L58.35 13.82Q58.13 12.38 58.00 11.55L58.00 11.55L58.00 11.55Q57.88 10.72 57.81 10.28L57.81 10.28L57.81 10.28Q57.75 9.83 57.73 9.65L57.73 9.65L57.73 9.65Q57.71 9.48 57.71 9.35L57.71 9.35L57.71 9.35Q57.65 9.09 57.60 8.88L57.60 8.88L57.60 8.88Q57.55 8.67 57.44 8.49L57.44 8.49L57.44 8.49Q57.33 8.32 57.13 8.17L57.13 8.17L57.13 8.17Q56.94 8.02 56.60 7.90L56.60 7.90L56.60 7.90Q56.07 7.70 55.55 7.56L55.55 7.56L55.55 7.56Q55.02 7.42 54.26 7.31L54.26 7.31L54.26 7.31Q53.77 7.24 53.54 7.36L53.54 7.36L53.54 7.36Q53.31 7.48 53.19 7.95L53.19 7.95L53.19 7.95Q53.06 8.61 52.93 9.47L52.93 9.47L52.93 9.47Q52.79 10.33 52.66 11.30L52.66 11.30L52.66 11.30Q52.53 12.26 52.42 13.26L52.42 13.26L52.42 13.26Q52.30 14.25 52.21 15.18L52.21 15.18L52.21 15.18Q52.12 16.10 52.07 16.89L52.07 16.89L52.07 16.89Q52.02 17.68 52.02 18.23L52.02 18.23L52.02 18.23Q52.00 18.59 52.12 18.79L52.12 18.79L52.12 18.79Q52.25 18.98 52.60 19.15L52.60 19.15L52.60 19.15Q52.88 19.29 53.21 19.40L53.21 19.40L53.21 19.40Q53.54 19.50 53.86 19.57L53.86 19.57L53.86 19.57Q54.19 19.64 54.32 19.57L54.32 19.57L54.32 19.57Q54.45 19.49 54.50 19.24L54.50 19.24L54.50 19.24Q54.56 18.63 54.66 17.86L54.66 17.86L54.66 17.86Q54.77 17.09 54.91 16.21L54.91 16.21L54.91 16.21Q55.05 15.33 55.22 14.38L55.22 14.38L55.22 14.38Q55.38 13.43 55.57 12.47ZM66.46 8.15L66.46 8.15L65.13 17.46L65.13 17.46Q65.10 17.84 65.23 18.10L65.23 18.10L65.23 18.10Q65.37 18.37 65.60 18.56L65.60 18.56L65.60 18.56Q65.90 18.82 66.12 18.98L66.12 18.98L66.12 18.98Q66.33 19.14 66.57 19.29L66.57 19.29L66.57 19.29Q66.78 19.43 67.07 19.51L67.07 19.51L67.07 19.51Q67.35 19.59 67.91 19.45L67.91 19.45L67.91 19.45Q68.75 19.29 69.68 19.11L69.68 19.11L69.68 19.11Q70.60 18.93 71.50 18.76L71.50 18.76L71.50 18.76Q71.88 18.69 71.95 18.59L71.95 18.59L71.95 18.59Q72.02 18.48 71.95 18.20L71.95 18.20L71.95 18.20Q71.83 17.95 71.74 17.70L71.74 17.70L71.74 17.70Q71.65 17.46 71.48 17.18L71.48 17.18L71.48 17.18Q71.33 16.93 71.11 16.84L71.11 16.84L71.11 16.84Q70.90 16.76 70.50 16.79L70.50 16.79L70.50 16.79Q69.80 16.83 69.21 16.90L69.21 16.90L69.21 16.90Q68.61 16.97 67.96 17.08L67.96 17.08L67.96 17.08Q68.07 16.69 68.17 16.29L68.17 16.29L68.17 16.29Q68.26 15.89 68.38 15.44L68.38 15.44L68.38 15.44Q69.19 15.27 70.06 15.13L70.06 15.13L70.06 15.13Q70.94 14.99 71.78 14.84L71.78 14.84L71.78 14.84Q72.17 14.76 72.26 14.64L72.26 14.64L72.26 14.64Q72.35 14.53 72.24 14.21L72.24 14.21L72.24 14.21Q72.17 13.93 72.08 13.66L72.08 13.66L72.08 13.66Q71.99 13.38 71.82 13.10L71.82 13.10L71.82 13.10Q71.67 12.82 71.44 12.74L71.44 12.74L71.44 12.74Q71.22 12.66 70.83 12.67L70.83 12.67L70.83 12.67Q70.35 12.68 69.93 12.71L69.93 12.71L69.93 12.71Q69.51 12.74 69.09 12.80L69.09 12.80L69.09 12.80Q69.31 12.05 69.50 11.38L69.50 11.38L69.50 11.38Q69.68 10.70 69.89 10.07L69.89 10.07L69.89 10.07Q70.88 9.93 71.78 9.83L71.78 9.83L71.78 9.83Q72.67 9.73 73.51 9.63L73.51 9.63L73.51 9.63Q73.92 9.58 74.03 9.45L74.03 9.45L74.03 9.45Q74.14 9.32 74.09 8.96L74.09 8.96L74.09 8.96Q74.02 8.64 73.95 8.37L73.95 8.37L73.95 8.37Q73.88 8.09 73.70 7.76L73.70 7.76L73.70 7.76Q73.47 7.13 72.67 7.14L72.67 7.14L72.67 7.14Q71.83 7.17 70.99 7.27L70.99 7.27L70.99 7.27Q70.14 7.38 69.34 7.52L69.34 7.52L69.34 7.52Q68.53 7.66 67.80 7.83L67.80 7.83L67.80 7.83Q67.06 7.99 66.46 8.15Z"></path></g><!----><g data-v-423bf9ae="" id="b9e38e82-54b0-4951-b2a6-3a08893cfcf9" transform="matrix(1.2931033348782126,0,0,1.2931033348782126,-6.955170634243814,-19.45517091376894)" stroke="none" fill="#ffffff"><path d="M82.5 26.9H67.8v-5.2c0-3.6-2.9-6.5-6.5-6.5h-21c-3.6 0-6.5 2.9-6.5 6.5v5.2H17.5c-6.5 0-11.8 5.3-11.8 11.8V73c0 6.5 5.3 11.8 11.8 11.8h65c6.5 0 11.8-5.3 11.8-11.8V38.7c0-6.5-5.3-11.8-11.8-11.8zm-43.7-5.2c0-.8.7-1.5 1.5-1.5h21c.8 0 1.5.7 1.5 1.5v5.2h-24v-5.2zm32.5 11.2v45.9H28.8V32.9h42.5zM11.7 73V38.7c0-3.2 2.6-5.8 5.8-5.8h1.8v45.9h-1.8c-3.2 0-5.8-2.6-5.8-5.8zm76.6 0c0 3.2-2.6 5.8-5.8 5.8h-1.8V32.9h1.8c3.2 0 5.8 2.6 5.8 5.8V73z"></path><path d="M36.6 47.8l10.8 6-6 6-2.5-.4c-.3-.1-.7 0-1 .2l-1.4.9c-.3.2-.4.4-.4.6 0 .2.2.5.4.6l2.8 1.3c-.1.4.1.7.4 1l.5.5c.1.3.3.6.5.7.2.2.5.4.7.5l.5.5c.3.3.6.4 1 .4l1.3 2.8c.1.2.3.4.6.4s.5-.1.6-.4l.9-1.3c.2-.3.3-.7.2-1l-.6-2.6 6-6 6 10.8c.2.3.5.5.7.5.3 0 .6-.2.7-.5l1.4-2.3c.3-.5.4-1.1.2-1.6l-1.3-4.1.4-.4c.4 0 .8-.1 1.1-.4.3-.3.5-.6.5-1s-.2-.7-.5-1L60 57.4c-.5-.5-1.2-.6-1.8-.2l-1.3-3.9v-.1l4.1-4.1.4-.5c1-1.3 3.5-5.2 2.2-6.4-1.3-1.3-5.1 1.2-6.4 2.2l-.1-.1-4.4 4.4h-.1l-3.9-1.3c.1-.2.2-.5.2-.7 0-.4-.2-.7-.5-1l-1.2-1.1c-.6-.6-1.5-.6-2 0-.3.3-.5.6-.4 1.1l-.4.4-3.9-1.3c-.5-.2-1.2-.1-1.6.2l-2.3 1.4c-.3.2-.5.5-.5.7 0 .3.2.6.5.7z"></path></g><!----><g data-v-423bf9ae="" id="24856422-8625-4118-8712-8f34d8ec8bb2" fill="#ffffff" transform="matrix(1.8750345278569505,0,0,1.8750345278569505,131.8314052766389,53.17487564903764)"><path d="M2.16 12.38L7.99 12.38L7.99 13.02L1.46 13.02L1.46 3.78L7.77 3.78L7.77 4.42L2.16 4.42L2.16 7.99L6.59 7.99L6.59 8.65L2.16 8.65L2.16 12.38ZM24.12 3.78L24.12 13.02L23.25 13.02L18.35 5.77L17.67 4.54L17.65 4.54L17.70 5.70L17.70 13.02L17.02 13.02L17.02 3.78L17.91 3.78L22.79 11.02L23.49 12.26L23.46 11.10L23.46 3.78L24.12 3.78ZM38.70 3.78L38.70 9.97L38.70 9.97Q38.70 11.47 37.93 12.31L37.93 12.31L37.93 12.31Q37.16 13.16 35.76 13.16L35.76 13.16L35.76 13.16Q34.48 13.16 33.78 12.51L33.78 12.51L33.78 12.51Q33.08 11.86 33.08 10.74L33.08 10.74L33.08 10.74Q33.08 10.37 33.14 10.08L33.14 10.08L33.80 9.93L33.80 9.93Q33.75 10.26 33.75 10.57L33.75 10.57L33.75 10.57Q33.75 12.52 35.74 12.52L35.74 12.52L35.74 12.52Q36.92 12.52 37.46 11.83L37.46 11.83L37.46 11.83Q38.00 11.14 38.00 9.81L38.00 9.81L38.00 3.78L38.70 3.78ZM52.18 3.64L52.18 3.64Q53.48 3.64 54.44 4.22L54.44 4.22L54.44 4.22Q55.40 4.80 55.92 5.87L55.92 5.87L55.92 5.87Q56.43 6.94 56.43 8.40L56.43 8.40L56.43 8.40Q56.43 9.86 55.92 10.93L55.92 10.93L55.92 10.93Q55.40 12.00 54.44 12.58L54.44 12.58L54.44 12.58Q53.48 13.16 52.18 13.16L52.18 13.16L52.18 13.16Q50.88 13.16 49.92 12.58L49.92 12.58L49.92 12.58Q48.96 12.00 48.44 10.93L48.44 10.93L48.44 10.93Q47.92 9.86 47.92 8.40L47.92 8.40L47.92 8.40Q47.92 6.94 48.44 5.87L48.44 5.87L48.44 5.87Q48.96 4.80 49.92 4.22L49.92 4.22L49.92 4.22Q50.88 3.64 52.18 3.64L52.18 3.64ZM52.18 4.28L52.18 4.28Q51.10 4.28 50.31 4.78L50.31 4.78L50.31 4.78Q49.52 5.28 49.09 6.21L49.09 6.21L49.09 6.21Q48.66 7.14 48.66 8.40L48.66 8.40L48.66 8.40Q48.66 9.66 49.09 10.59L49.09 10.59L49.09 10.59Q49.52 11.52 50.31 12.02L50.31 12.02L50.31 12.02Q51.10 12.52 52.18 12.52L52.18 12.52L52.18 12.52Q53.26 12.52 54.05 12.02L54.05 12.02L54.05 12.02Q54.85 11.52 55.28 10.59L55.28 10.59L55.28 10.59Q55.71 9.66 55.71 8.40L55.71 8.40L55.71 8.40Q55.71 7.14 55.28 6.21L55.28 6.21L55.28 6.21Q54.85 5.28 54.05 4.78L54.05 4.78L54.05 4.78Q53.26 4.28 52.18 4.28L52.18 4.28ZM71.40 3.78L68.12 9.42L68.12 13.02L67.42 13.02L67.42 9.42L64.15 3.78L64.97 3.78L67.77 8.69L70.57 3.78L71.40 3.78ZM96.82 3.78L96.82 4.42L93.45 4.42L93.45 13.02L92.75 13.02L92.75 4.42L89.38 4.42L89.38 3.78L96.82 3.78ZM112.53 13.02L111.71 13.02L109.06 9.02L109.02 9.02L106.29 9.02L106.29 13.02L105.59 13.02L105.59 3.78L109.02 3.78L109.02 3.78Q110.40 3.78 111.22 4.48L111.22 4.48L111.22 4.48Q112.04 5.18 112.04 6.40L112.04 6.40L112.04 6.40Q112.04 7.41 111.45 8.07L111.45 8.07L111.45 8.07Q110.87 8.74 109.84 8.93L109.84 8.93L112.53 13.02ZM106.29 4.42L106.29 8.36L109.00 8.36L109.00 8.36Q110.12 8.36 110.72 7.85L110.72 7.85L110.72 7.85Q111.31 7.35 111.31 6.40L111.31 6.40L111.31 6.40Q111.31 5.45 110.72 4.93L110.72 4.93L110.72 4.93Q110.12 4.42 109.00 4.42L109.00 4.42L106.29 4.42ZM122.25 3.78L122.25 13.02L121.55 13.02L121.55 3.78L122.25 3.78ZM135.23 3.78L135.23 3.78Q136.67 3.78 137.52 4.50L137.52 4.50L137.52 4.50Q138.36 5.22 138.36 6.48L138.36 6.48L138.36 6.48Q138.36 7.74 137.52 8.47L137.52 8.47L137.52 8.47Q136.67 9.20 135.23 9.20L135.23 9.20L132.86 9.20L132.86 13.02L132.16 13.02L132.16 3.78L135.23 3.78ZM135.14 8.54L135.14 8.54Q136.35 8.54 136.98 8.01L136.98 8.01L136.98 8.01Q137.62 7.48 137.62 6.48L137.62 6.48L137.62 6.48Q137.62 5.50 136.98 4.96L136.98 4.96L136.98 4.96Q136.35 4.42 135.14 4.42L135.14 4.42L132.86 4.42L132.86 8.54L135.14 8.54ZM150.23 3.64L150.23 3.64Q152.84 3.64 153.72 5.68L153.72 5.68L153.12 6.17L153.12 6.17Q152.77 5.18 152.07 4.73L152.07 4.73L152.07 4.73Q151.38 4.28 150.25 4.28L150.25 4.28L150.25 4.28Q149.44 4.28 148.83 4.54L148.83 4.54L148.83 4.54Q148.23 4.79 147.92 5.22L147.92 5.22L147.92 5.22Q147.60 5.66 147.60 6.20L147.60 6.20L147.60 6.20Q147.60 6.73 147.87 7.08L147.87 7.08L147.87 7.08Q148.13 7.43 148.77 7.68L148.77 7.68L148.77 7.68Q149.41 7.92 150.53 8.12L150.53 8.12L150.53 8.12Q152.33 8.43 153.09 9.02L153.09 9.02L153.09 9.02Q153.85 9.60 153.85 10.64L153.85 10.64L153.85 10.64Q153.85 11.38 153.41 11.96L153.41 11.96L153.41 11.96Q152.98 12.53 152.19 12.84L152.19 12.84L152.19 12.84Q151.40 13.16 150.37 13.16L150.37 13.16L150.37 13.16Q148.92 13.16 147.92 12.58L147.92 12.58L147.92 12.58Q146.92 12.00 146.55 10.95L146.55 10.95L147.17 10.47L147.17 10.47Q147.45 11.47 148.29 11.99L148.29 11.99L148.29 11.99Q149.14 12.52 150.39 12.52L150.39 12.52L150.39 12.52Q151.59 12.52 152.35 12.03L152.35 12.03L152.35 12.03Q153.12 11.54 153.12 10.68L153.12 10.68L153.12 10.68Q153.12 9.94 152.50 9.51L152.50 9.51L152.50 9.51Q151.87 9.07 150.33 8.81L150.33 8.81L150.33 8.81Q149.03 8.58 148.27 8.26L148.27 8.26L148.27 8.26Q147.52 7.94 147.19 7.46L147.19 7.46L147.19 7.46Q146.86 6.99 146.86 6.27L146.86 6.27L146.86 6.27Q146.86 5.56 147.27 4.96L147.27 4.96L147.27 4.96Q147.69 4.35 148.45 4.00L148.45 4.00L148.45 4.00Q149.21 3.64 150.23 3.64L150.23 3.64Z"></path></g></svg>